<svg width="1200" height="800" viewBox="0 0 1200 800" xmlns="http://www.w3.org/2000/svg">
  <defs>
    <linearGradient id="bg" x1="0" y1="0" x2="1" y2="1">
      <stop offset="0%" stop-color="#0B1020"/>
      <stop offset="100%" stop-color="#1E293B"/>
    </linearGradient>
  </defs>
  <rect width="1200" height="800" fill="url(#bg)"/>
  <rect x="70" y="70" width="1060" height="660" rx="28" fill="#0F172A" stroke="#38BDF8" stroke-opacity="0.3"/>
  <rect x="120" y="120" width="320" height="560" rx="18" fill="#111827"/>
  <rect x="470" y="120" width="620" height="260" rx="18" fill="#111827"/>
  <rect x="470" y="410" width="620" height="270" rx="18" fill="#111827"/>
  <g stroke="#22C55E" stroke-opacity="0.35" stroke-width="2">
    <line x1="160" y1="170" x2="400" y2="170"/>
    <line x1="160" y1="220" x2="400" y2="220"/>
    <line x1="160" y1="270" x2="400" y2="270"/>
    <line x1="160" y1="320" x2="400" y2="320"/>
  </g>
  <g stroke="#38BDF8" stroke-opacity="0.4" stroke-width="2">
    <line x1="520" y1="170" x2="1040" y2="170"/>
    <line x1="520" y1="220" x2="1040" y2="220"/>
    <line x1="520" y1="270" x2="1040" y2="270"/>
  </g>
  <g stroke="#38BDF8" stroke-opacity="0.4" stroke-width="2">
    <line x1="520" y1="460" x2="1040" y2="460"/>
    <line x1="520" y1="510" x2="1040" y2="510"/>
    <line x1="520" y1="560" x2="1040" y2="560"/>
  </g>
</svg>
