<svg width="1200" height="800" viewBox="0 0 1200 800" xmlns="http://www.w3.org/2000/svg">
  <defs>
    <linearGradient id="bg" x1="0" y1="0" x2="1" y2="1">
      <stop offset="0%" stop-color="#0EA5E9"/>
      <stop offset="100%" stop-color="#0B1020"/>
    </linearGradient>
    <linearGradient id="panel" x1="0" y1="0" x2="1" y2="0">
      <stop offset="0%" stop-color="#111827"/>
      <stop offset="100%" stop-color="#0F172A"/>
    </linearGradient>
  </defs>
  <rect width="1200" height="800" fill="url(#bg)"/>
  <rect x="80" y="70" width="1040" height="660" rx="26" fill="url(#panel)" stroke="#38BDF8" stroke-opacity="0.4"/>
  <rect x="120" y="130" width="460" height="220" rx="18" fill="#0B1020" stroke="#1E293B"/>
  <rect x="620" y="130" width="440" height="220" rx="18" fill="#0B1020" stroke="#1E293B"/>
  <rect x="120" y="380" width="940" height="290" rx="18" fill="#0B1020" stroke="#1E293B"/>
  <g stroke="#38BDF8" stroke-opacity="0.35" stroke-width="2">
    <line x1="150" y1="170" x2="520" y2="170"/>
    <line x1="150" y1="210" x2="520" y2="210"/>
    <line x1="150" y1="250" x2="520" y2="250"/>
  </g>
  <g stroke="#22C55E" stroke-opacity="0.35" stroke-width="2">
    <line x1="650" y1="170" x2="1020" y2="170"/>
    <line x1="650" y1="210" x2="1020" y2="210"/>
    <line x1="650" y1="250" x2="1020" y2="250"/>
  </g>
  <g stroke="#475569" stroke-opacity="0.4" stroke-width="1">
    <line x1="120" y1="430" x2="1060" y2="430"/>
    <line x1="120" y1="480" x2="1060" y2="480"/>
    <line x1="120" y1="530" x2="1060" y2="530"/>
    <line x1="120" y1="580" x2="1060" y2="580"/>
  </g>
</svg>
